<?xml version="1.0" encoding="UTF-8" standalone="no"?>
<!DOCTYPE svg PUBLIC "-//W3C//DTD SVG 1.1//EN"
 "http://www.w3.org/Graphics/SVG/1.1/DTD/svg11.dtd">
<!-- Generated by graphviz version 2.44.1 (20200629.0846)
 -->
<!-- Pages: 1 -->
<svg width="358pt" height="127pt"
 viewBox="0.00 0.00 357.50 127.05" xmlns="http://www.w3.org/2000/svg" xmlns:xlink="http://www.w3.org/1999/xlink">
<g id="graph0" class="graph" transform="scale(1 1) rotate(0) translate(4 123.05)">
<polygon fill="white" stroke="transparent" points="-4,4 -4,-123.05 353.5,-123.05 353.5,4 -4,4"/>
<!-- gameSpeed -->
<g id="node1" class="node">
<title>gameSpeed</title>
<polygon fill="lightgray" stroke="black" points="171.5,-119.05 115.5,-119.05 115.5,-101.05 171.5,-101.05 171.5,-119.05"/>
<text text-anchor="middle" x="143.5" y="-107.85" font-family="Times New Roman,serif" font-size="9.00">gameSpeed</text>
</g>
<!-- Unduck -->
<g id="node7" class="node">
<title>Unduck</title>
<ellipse fill="lightblue" stroke="black" cx="147.5" cy="-32.53" rx="31.64" ry="31.64"/>
<text text-anchor="middle" x="147.5" y="-30.33" font-family="Times New Roman,serif" font-size="9.00">Unduck</text>
</g>
<!-- gameSpeed&#45;&gt;Unduck -->
<g id="edge2" class="edge">
<title>gameSpeed&#45;&gt;Unduck</title>
<path fill="none" stroke="red" stroke-width="0.3" d="M143.93,-100.97C144.28,-94.41 144.79,-84.61 145.33,-74.5"/>
<polygon fill="red" stroke="red" stroke-width="0.3" points="148.83,-74.57 145.86,-64.4 141.84,-74.2 148.83,-74.57"/>
</g>
<!-- Nothing -->
<g id="node8" class="node">
<title>Nothing</title>
<ellipse fill="lightblue" stroke="black" cx="59.5" cy="-32.53" rx="32.55" ry="32.55"/>
<text text-anchor="middle" x="59.5" y="-30.33" font-family="Times New Roman,serif" font-size="9.00">Nothing</text>
</g>
<!-- gameSpeed&#45;&gt;Nothing -->
<g id="edge1" class="edge">
<title>gameSpeed&#45;&gt;Nothing</title>
<path fill="none" stroke="green" stroke-width="0.35" d="M134.51,-100.97C124.11,-91.62 106.41,-75.7 90.81,-61.68"/>
<polygon fill="green" stroke="green" stroke-width="0.35" points="93.14,-59.07 83.37,-54.99 88.46,-64.28 93.14,-59.07"/>
</g>
<!-- yPosition -->
<g id="node2" class="node">
<title>yPosition</title>
<polygon fill="lightgray" stroke="black" points="349.5,-119.05 297.5,-119.05 297.5,-101.05 349.5,-101.05 349.5,-119.05"/>
<text text-anchor="middle" x="323.5" y="-107.85" font-family="Times New Roman,serif" font-size="9.00">yPosition</text>
</g>
<!-- distToNextObstable -->
<g id="node3" class="node">
<title>distToNextObstable</title>
<polygon fill="lightgray" stroke="black" points="279.5,-119.05 189.5,-119.05 189.5,-101.05 279.5,-101.05 279.5,-119.05"/>
<text text-anchor="middle" x="234.5" y="-107.85" font-family="Times New Roman,serif" font-size="9.00">distToNextObstable</text>
</g>
<!-- Jump -->
<g id="node5" class="node">
<title>Jump</title>
<ellipse fill="lightblue" stroke="black" cx="230.5" cy="-32.53" rx="26.33" ry="26.33"/>
<text text-anchor="middle" x="230.5" y="-30.33" font-family="Times New Roman,serif" font-size="9.00">Jump</text>
</g>
<!-- distToNextObstable&#45;&gt;Jump -->
<g id="edge3" class="edge">
<title>distToNextObstable&#45;&gt;Jump</title>
<path fill="none" stroke="red" stroke-width="0.23" d="M234.07,-100.97C233.66,-93.26 233.02,-81.09 232.39,-69.19"/>
<polygon fill="red" stroke="red" stroke-width="0.23" points="235.87,-68.73 231.85,-58.93 228.88,-69.1 235.87,-68.73"/>
</g>
<!-- Duck -->
<g id="node6" class="node">
<title>Duck</title>
<ellipse fill="lightblue" stroke="black" cx="300.5" cy="-32.53" rx="25.41" ry="25.41"/>
<text text-anchor="middle" x="300.5" y="-30.33" font-family="Times New Roman,serif" font-size="9.00">Duck</text>
</g>
<!-- distToNextObstable&#45;&gt;Duck -->
<g id="edge4" class="edge">
<title>distToNextObstable&#45;&gt;Duck</title>
<path fill="none" stroke="red" stroke-width="0.39" stroke-dasharray="1,5" d="M241.56,-100.97C250.09,-91.21 264.87,-74.3 277.49,-59.86"/>
<polygon fill="red" stroke="red" stroke-width="0.39" points="280.28,-61.98 284.23,-52.15 275.01,-57.37 280.28,-61.98"/>
</g>
<!-- distToNextObstable&#45;&gt;Unduck -->
<g id="edge6" class="edge">
<title>distToNextObstable&#45;&gt;Unduck</title>
<path fill="none" stroke="green" stroke-width="0.31" d="M225.19,-100.97C214.19,-91.42 195.31,-75.03 178.92,-60.8"/>
<polygon fill="green" stroke="green" stroke-width="0.31" points="180.96,-57.94 171.12,-54.03 176.37,-63.23 180.96,-57.94"/>
</g>
<!-- heightOfNextObstacle -->
<g id="node4" class="node">
<title>heightOfNextObstacle</title>
<polygon fill="lightgray" stroke="black" points="97,-119.05 0,-119.05 0,-101.05 97,-101.05 97,-119.05"/>
<text text-anchor="middle" x="48.5" y="-107.85" font-family="Times New Roman,serif" font-size="9.00">heightOfNextObstacle</text>
</g>
<!-- heightOfNextObstacle&#45;&gt;Nothing -->
<g id="edge5" class="edge">
<title>heightOfNextObstacle&#45;&gt;Nothing</title>
<path fill="none" stroke="red" stroke-width="0.21" d="M49.68,-100.97C50.62,-94.46 52.04,-84.78 53.49,-74.77"/>
<polygon fill="red" stroke="red" stroke-width="0.21" points="56.97,-75.15 54.95,-64.75 50.05,-74.14 56.97,-75.15"/>
</g>
</g>
</svg>
